<?xml version="1.0" encoding="UTF-8" standalone="no"?>
<svg
   xmlns:dc="http://purl.org/dc/elements/1.1/"
   xmlns:cc="http://creativecommons.org/ns#"
   xmlns:rdf="http://www.w3.org/1999/02/22-rdf-syntax-ns#"
   xmlns:svg="http://www.w3.org/2000/svg"
   xmlns="http://www.w3.org/2000/svg"
   xmlns:sodipodi="http://sodipodi.sourceforge.net/DTD/sodipodi-0.dtd"
   xmlns:inkscape="http://www.inkscape.org/namespaces/inkscape"
   width="17.985209"
   height="20"
   viewBox="0 0 17.985209 20"
   version="1.1"
   id="svg16"
   sodipodi:docname="Git-Hub.svg"
   style="fill:none"
   inkscape:version="0.92.5 (2060ec1f9f, 2020-04-08)">
  <metadata
     id="metadata20">
    <rdf:RDF>
      <cc:Work
         rdf:about="">
        <dc:format>image/svg+xml</dc:format>
        <dc:type
           rdf:resource="http://purl.org/dc/dcmitype/StillImage" />
        <dc:title></dc:title>
      </cc:Work>
    </rdf:RDF>
  </metadata>
  <sodipodi:namedview
     pagecolor="#ffffff"
     bordercolor="#666666"
     borderopacity="1"
     objecttolerance="10"
     gridtolerance="10"
     guidetolerance="10"
     inkscape:pageopacity="0"
     inkscape:pageshadow="2"
     inkscape:window-width="640"
     inkscape:window-height="480"
     id="namedview18"
     showgrid="false"
     fit-margin-top="0"
     fit-margin-left="0"
     fit-margin-right="0"
     fit-margin-bottom="0"
     inkscape:zoom="5.9"
     inkscape:cx="6.0202075"
     inkscape:cy="10"
     inkscape:window-x="0"
     inkscape:window-y="0"
     inkscape:window-maximized="0"
     inkscape:current-layer="svg16" />
  <g
     clip-path="url(#clip0_48_34)"
     id="g6"
     transform="translate(-11.013691,-10)">
    <g
       clip-path="url(#clip1_48_34)"
       id="g4">
      <path
         d="m 28.9989,17.4611 c 0,-1.1399 -0.366,-2.2107 -1.0647,-3.1433 0.2662,-0.8981 0.3327,-2.038 0.2662,-3.3506 C 28.1671,10.4145 27.7345,10 27.2022,10 c -0.2994,0 -2.8281,0.0345 -4.2921,1.3817 -1.2643,-0.2418 -2.5951,-0.2418 -3.8927,0 C 17.5867,10.0345 15.058,10 14.7253,10 c -0.5323,0 -0.9649,0.4145 -0.9981,0.9672 -0.0999,1.3126 0,2.4525 0.2661,3.3506 -0.6987,0.9672 -1.0647,2.038 -1.0647,3.1433 0,2.418 1.7967,4.5942 4.525,5.6304 -0.0998,0.2073 -0.1664,0.4491 -0.2329,0.6909 -2.8947,-0.3109 -4.2588,-3.0397 -4.3253,-3.1434 -0.2329,-0.5181 -0.8318,-0.7254 -1.3309,-0.449 -0.4991,0.2418 -0.6987,0.8635 -0.4325,1.3817 0.0665,0.1727 1.8964,3.8687 5.9223,4.2832 v 3.1088 c 0,0.5872 0.4326,1.0363 0.9982,1.0363 h 5.8225 c 0.5656,0 0.9982,-0.4491 0.9982,-1.0363 v -4.1105 c 0,-0.6218 -0.1331,-1.209 -0.366,-1.7271 2.695,-1.0708 4.4917,-3.2125 4.4917,-5.665 z"
         id="path2"
         inkscape:connector-curvature="0"
         style="fill:#dbd8d7" />
    </g>
  </g>
  <defs
     id="defs14">
    <clipPath
       id="clip0_48_34">
      <rect
         width="18"
         height="20"
         transform="translate(11,10)"
         id="rect8"
         x="0"
         y="0"
         style="fill:#ffffff" />
    </clipPath>
    <clipPath
       id="clip1_48_34">
      <rect
         width="18"
         height="20"
         transform="translate(11,10)"
         id="rect11"
         x="0"
         y="0"
         style="fill:#ffffff" />
    </clipPath>
  </defs>
</svg>
