<?xml version="1.0" encoding="UTF-8" standalone="no"?>
<svg
   xmlns:dc="http://purl.org/dc/elements/1.1/"
   xmlns:cc="http://creativecommons.org/ns#"
   xmlns:rdf="http://www.w3.org/1999/02/22-rdf-syntax-ns#"
   xmlns:svg="http://www.w3.org/2000/svg"
   xmlns="http://www.w3.org/2000/svg"
   xmlns:sodipodi="http://sodipodi.sourceforge.net/DTD/sodipodi-0.dtd"
   xmlns:inkscape="http://www.inkscape.org/namespaces/inkscape"
   width="22"
   height="18"
   viewBox="0 0 22 18"
   version="1.1"
   id="svg4"
   sodipodi:docname="Icon - Mail.svg"
   style="fill:none"
   inkscape:version="0.92.5 (2060ec1f9f, 2020-04-08)">
  <metadata
     id="metadata10">
    <rdf:RDF>
      <cc:Work
         rdf:about="">
        <dc:format>image/svg+xml</dc:format>
        <dc:type
           rdf:resource="http://purl.org/dc/dcmitype/StillImage" />
        <dc:title></dc:title>
      </cc:Work>
    </rdf:RDF>
  </metadata>
  <defs
     id="defs8" />
  <sodipodi:namedview
     pagecolor="#ffffff"
     bordercolor="#666666"
     borderopacity="1"
     objecttolerance="10"
     gridtolerance="10"
     guidetolerance="10"
     inkscape:pageopacity="0"
     inkscape:pageshadow="2"
     inkscape:window-width="640"
     inkscape:window-height="480"
     id="namedview6"
     showgrid="false"
     fit-margin-top="0"
     fit-margin-left="0"
     fit-margin-right="0"
     fit-margin-bottom="0"
     inkscape:zoom="9.8333333"
     inkscape:cx="9.220339"
     inkscape:cy="9"
     inkscape:window-x="0"
     inkscape:window-y="0"
     inkscape:window-maximized="0"
     inkscape:current-layer="svg4" />
  <path
     d="m 6.4,2 h 9.2 c 1.1531,0 1.8977,0.00156 2.4643,0.04785 0.5434,0.0444 0.7448,0.11975 0.8437,0.17014 0.3763,0.19174 0.6823,0.4977 0.874,0.87403 0.0504,0.09889 0.1258,0.30033 0.1701,0.84365 C 19.9984,4.50235 20,5.24689 20,6.4 v 5.2 c 0,1.1531 -0.0016,1.8977 -0.0479,2.4643 -0.0443,0.5434 -0.1197,0.7448 -0.1701,0.8437 -0.1917,0.3763 -0.4977,0.6823 -0.874,0.874 -0.0989,0.0504 -0.3003,0.1258 -0.8437,0.1701 C 17.4977,15.9984 16.7531,16 15.6,16 H 6.4 C 5.24689,16 4.50235,15.9984 3.93567,15.9521 3.39235,15.9078 3.19091,15.8324 3.09202,15.782 2.71569,15.5903 2.40973,15.2843 2.21799,14.908 2.1676,14.8091 2.09225,14.6077 2.04785,14.0643 2.00156,13.4977 2,12.7531 2,11.6 V 6.4 C 2,5.24689 2.00156,4.50235 2.04785,3.93567 2.09225,3.39235 2.1676,3.19091 2.21799,3.09202 2.40973,2.71569 2.71569,2.40973 3.09202,2.21799 3.19091,2.1676 3.39235,2.09225 3.93567,2.04785 4.50235,2.00156 5.24689,2 6.4,2 Z M 0,6.4 C 0,4.15979 0,3.03969 0.43597,2.18404 0.81947,1.43139 1.43139,0.81947 2.18404,0.43597 3.03969,0 4.15979,0 6.4,0 h 9.2 c 2.2402,0 3.3603,0 4.216,0.43597 0.7526,0.3835 1.3645,0.99542 1.748,1.74807 C 22,3.03969 22,4.15979 22,6.4 v 5.2 c 0,2.2402 0,3.3603 -0.436,4.216 -0.3835,0.7526 -0.9954,1.3645 -1.748,1.748 C 18.9603,18 17.8402,18 15.6,18 H 6.4 C 4.15979,18 3.03969,18 2.18404,17.564 1.43139,17.1805 0.81947,16.5686 0.43597,15.816 0,14.9603 0,13.8402 0,11.6 Z M 5.5547,4.16795 C 5.09517,3.8616 4.4743,3.98577 4.16795,4.4453 3.8616,4.90483 3.98577,5.5257 4.4453,5.83205 l 6,4.00005 c 0.3359,0.2239 0.7735,0.2239 1.1094,0 l 6,-4.00005 C 18.0142,5.5257 18.1384,4.90483 17.8321,4.4453 17.5257,3.98577 16.9048,3.8616 16.4453,4.16795 L 11,7.7981 Z"
     id="path2"
     inkscape:connector-curvature="0"
     style="clip-rule:evenodd;fill:#ffffff;fill-rule:evenodd" />
</svg>
