<?xml version="1.0" encoding="UTF-8" standalone="no"?>
<svg
   xmlns:dc="http://purl.org/dc/elements/1.1/"
   xmlns:cc="http://creativecommons.org/ns#"
   xmlns:rdf="http://www.w3.org/1999/02/22-rdf-syntax-ns#"
   xmlns:svg="http://www.w3.org/2000/svg"
   xmlns="http://www.w3.org/2000/svg"
   xmlns:sodipodi="http://sodipodi.sourceforge.net/DTD/sodipodi-0.dtd"
   xmlns:inkscape="http://www.inkscape.org/namespaces/inkscape"
   width="18"
   height="12"
   viewBox="0 0 18 12"
   version="1.1"
   id="svg4"
   sodipodi:docname="BurgerButton.svg"
   style="fill:none"
   inkscape:version="0.92.5 (2060ec1f9f, 2020-04-08)">
  <metadata
     id="metadata10">
    <rdf:RDF>
      <cc:Work
         rdf:about="">
        <dc:format>image/svg+xml</dc:format>
        <dc:type
           rdf:resource="http://purl.org/dc/dcmitype/StillImage" />
        <dc:title></dc:title>
      </cc:Work>
    </rdf:RDF>
  </metadata>
  <defs
     id="defs8" />
  <sodipodi:namedview
     pagecolor="#ffffff"
     bordercolor="#666666"
     borderopacity="1"
     objecttolerance="10"
     gridtolerance="10"
     guidetolerance="10"
     inkscape:pageopacity="0"
     inkscape:pageshadow="2"
     inkscape:window-width="1366"
     inkscape:window-height="714"
     id="namedview6"
     showgrid="false"
     fit-margin-top="0"
     fit-margin-left="0"
     fit-margin-right="0"
     fit-margin-bottom="0"
     inkscape:zoom="5.9"
     inkscape:cx="6.0338983"
     inkscape:cy="6"
     inkscape:window-x="0"
     inkscape:window-y="0"
     inkscape:window-maximized="1"
     inkscape:current-layer="svg4" />
  <path
     d="M 0,1 C 0,0.4477 0.4477,0 1,0 h 16 c 0.5523,0 1,0.4477 1,1 0,0.5523 -0.4477,1 -1,1 H 1 C 0.4477,2 0,1.5523 0,1 Z M 0,6 C 0,5.4477 0.4477,5 1,5 h 16 c 0.5523,0 1,0.4477 1,1 0,0.5523 -0.4477,1 -1,1 H 1 C 0.4477,7 0,6.5523 0,6 Z m 1,4 c -0.5523,0 -1,0.4477 -1,1 0,0.5523 0.4477,1 1,1 h 16 c 0.5523,0 1,-0.4477 1,-1 0,-0.5523 -0.4477,-1 -1,-1 z"
     id="path2"
     inkscape:connector-curvature="0"
     style="clip-rule:evenodd;fill:#ffffff;fill-rule:evenodd" />
</svg>
