<?xml version="1.0" encoding="UTF-8" standalone="no"?>
<svg
   xmlns:dc="http://purl.org/dc/elements/1.1/"
   xmlns:cc="http://creativecommons.org/ns#"
   xmlns:rdf="http://www.w3.org/1999/02/22-rdf-syntax-ns#"
   xmlns:svg="http://www.w3.org/2000/svg"
   xmlns="http://www.w3.org/2000/svg"
   xmlns:sodipodi="http://sodipodi.sourceforge.net/DTD/sodipodi-0.dtd"
   xmlns:inkscape="http://www.inkscape.org/namespaces/inkscape"
   width="872.89166"
   height="837.92444"
   viewBox="0 0 872.89166 837.92444"
   version="1.1"
   id="svg105"
   sodipodi:docname="Illustration-header.svg"
   style="fill:none"
   inkscape:version="0.92.5 (2060ec1f9f, 2020-04-08)">
  <metadata
     id="metadata109">
    <rdf:RDF>
      <cc:Work
         rdf:about="">
        <dc:format>image/svg+xml</dc:format>
        <dc:type
           rdf:resource="http://purl.org/dc/dcmitype/StillImage" />
        <dc:title></dc:title>
      </cc:Work>
    </rdf:RDF>
  </metadata>
  <sodipodi:namedview
     pagecolor="#ffffff"
     bordercolor="#666666"
     borderopacity="1"
     objecttolerance="10"
     gridtolerance="10"
     guidetolerance="10"
     inkscape:pageopacity="0"
     inkscape:pageshadow="2"
     inkscape:window-width="1366"
     inkscape:window-height="714"
     id="namedview107"
     showgrid="false"
     fit-margin-top="0"
     fit-margin-left="0"
     fit-margin-right="0"
     fit-margin-bottom="0"
     inkscape:zoom="0.23699915"
     inkscape:cx="374.51663"
     inkscape:cy="357.52086"
     inkscape:window-x="0"
     inkscape:window-y="0"
     inkscape:window-maximized="1"
     inkscape:current-layer="svg105" />
  <g
     clip-path="url(#clip0_34_1280)"
     id="g98"
     transform="translate(-138.14344,0.403564)">
    <path
       d="m 766.504,165.196 54.935,89.42 c 0,0 -33.107,16.025 -79.941,51.744 -39.789,30.479 -90.172,88.002 -90.172,88.002 L 558,233.674 c 0,0 41.683,-49.358 103.619,-90.907 57.269,-38.612 69.185,-36.162 69.185,-36.162 z"
       stroke-miterlimit="10"
       id="path2"
       inkscape:connector-curvature="0"
       style="fill:#ffffff;stroke:#262626;stroke-width:1.22337997;stroke-miterlimit:10" />
    <path
       d="m 577.835,212.287 82.282,144.573 c 0,0 27.489,-30.357 57.846,-56.304 52.382,-44.379 92.658,-63.213 92.658,-63.213 L 730.479,106.421 c 0.325,0.184 -72.892,18.835 -152.644,105.866 z"
       id="path4"
       inkscape:connector-curvature="0"
       style="fill:#262626" />
    <path
       d="m 989.606,189.922 c 0,0 -43.846,-33.596 -134.702,-0.467 C 764.047,222.583 665.378,311.57 665.378,311.57 L 574.1,153.328 c 0,0 124.552,-104.38 208.271,-120.737 67.841,-13.3255 103.356,5.0466 103.356,5.0466 z"
       stroke-miterlimit="10"
       id="path6"
       inkscape:connector-curvature="0"
       style="fill:#ffffff;stroke:#262626;stroke-width:1.22337997;stroke-miterlimit:10" />
    <path
       d="M 969.056,119.736 859.587,351.702 553.478,313.275"
       stroke-miterlimit="10"
       id="path8"
       inkscape:connector-curvature="0"
       style="stroke:#ff6b00;stroke-width:1.22337997;stroke-miterlimit:10" />
    <path
       d="m 552.459,440.12 167.477,-46.421 23.058,83.188 -167.477,46.422 z"
       stroke-miterlimit="10"
       id="path10"
       inkscape:connector-curvature="0"
       style="fill:#ffffff;stroke:#ff6b00;stroke-width:1.22337997;stroke-miterlimit:10" />
    <path
       d="m 467.643,782.776 -19.089,5.291 c -4.989,-2.178 -10.162,-4.031 -15.222,-6.464 -0.65,-0.368 -1.23,-0.481 -1.88,-0.849 l -6.064,-21.878 33.088,-9.172 z"
       stroke-miterlimit="10"
       id="path12"
       inkscape:connector-curvature="0"
       style="fill:#ffffff;stroke:#ff6b00;stroke-width:1.22337997;stroke-miterlimit:10" />
    <path
       d="m 509.898,806.677 33.088,-9.172 -9.167,-33.072 -33.088,9.172 -9.167,-33.072 33.088,-9.171 -9.167,-33.072 -33.088,9.171 -33.089,9.172 -9.167,-33.072 33.089,-9.172 -9.167,-33.072 -33.089,9.172 9.167,33.072 -33.088,9.171 -33.088,9.172 -9.167,-33.072 -33.088,9.171 -33.088,9.172 9.167,33.072 9.167,33.071 -33.088,9.172 -9.167,-33.072 -14.762,4.092 -15.443,-222.82 c 0,0 21.921,-32.649 80.82,-34.73 88.22,-3.085 131.519,44.359 204.529,60.557 45.883,10.293 56.062,-10.335 56.062,-10.335 l 29.771,191.454 c 0,0 76.793,-16.628 120.641,34.773 26.02,30.592 -13.091,62.527 -53.561,73.744 -42.251,11.711 -92.222,4.469 -172.226,-17.187 z"
       stroke-miterlimit="10"
       id="path14"
       inkscape:connector-curvature="0"
       style="fill:#ffffff;stroke:#ff6b00;stroke-width:1.22337997;stroke-miterlimit:10" />
    <path
       d="m 509.898,806.677 -4.072,1.128 c -11.294,-3.17 -22.728,-6.849 -34.304,-11.037 l -3.879,-13.992 33.088,-9.171 z"
       stroke-miterlimit="10"
       id="path16"
       inkscape:connector-curvature="0"
       style="fill:#ffffff;stroke:#ff6b00;stroke-width:1.22337997;stroke-miterlimit:10" />
    <path
       d="m 425.388,758.876 -32.324,8.959 c -0.255,0.071 -0.58,-0.113 -0.834,-0.042 l -9.097,-32.818 33.088,-9.171 z"
       stroke-miterlimit="10"
       id="path18"
       inkscape:connector-curvature="0"
       style="fill:#ffffff;stroke:#ff6b00;stroke-width:1.22337997;stroke-miterlimit:10" />
    <path
       d="m 355.404,763.481 c -12.879,0.009 -24.176,1.77 -34.428,4.338 l -4.019,-14.501 33.088,-9.171 z"
       stroke-miterlimit="10"
       id="path20"
       inkscape:connector-curvature="0"
       style="fill:#ffffff;stroke:#ff6b00;stroke-width:1.22337997;stroke-miterlimit:10" />
    <path
       d="m 267.584,802.616 -2.546,0.706 -2.549,-34.906 21.38,-5.926 5.359,19.334 c -10.905,7.132 -18.262,15.198 -21.644,20.792 z"
       stroke-miterlimit="10"
       id="path22"
       inkscape:connector-curvature="0"
       style="fill:#ffffff;stroke:#ff6b00;stroke-width:1.22337997;stroke-miterlimit:10" />
    <path
       d="m 340.878,711.075 33.088,-9.172 9.167,33.072 -33.088,9.172 z"
       stroke-miterlimit="10"
       id="path24"
       inkscape:connector-curvature="0"
       style="fill:#ffffff;stroke:#ff6b00;stroke-width:1.22337997;stroke-miterlimit:10" />
    <path
       d="m 557.213,539.34 30.465,231.532 c 0,0 55.46,-39.206 129.632,-27.714 L 675.995,520.935 c 0,0 -35.226,-27.218 -89.763,5.431 0,0 -11.248,13.802 -29.019,12.974 z"
       id="path26"
       inkscape:connector-curvature="0"
       style="fill:#262626" />
    <path
       d="m 586.233,526.365 -7.032,-55.031 c 0,0 82.15,-15.1 122.45,35.367 l 42.012,257.369 c 0,0 -4.329,-16.607 -53.984,-31.607 -29.895,-8.972 -70.916,3.22 -70.916,3.22 z"
       stroke-miterlimit="10"
       id="path28"
       inkscape:connector-curvature="0"
       style="fill:#ffffff;stroke:#ff6b00;stroke-width:1.22337997;stroke-miterlimit:10" />
    <path
       d="m 383.94,480.804 c 0,0 -32.011,-16.604 -72.538,-2.631 -40.528,13.973 -138.336,104.091 -138.336,104.091 l -3.073,174.807 c 0,0 119.375,-101.301 158.697,-109.735 37.47,-8.195 69.41,8.155 69.41,8.155 z"
       id="path30"
       inkscape:connector-curvature="0"
       style="fill:#262626" />
    <path
       d="m 352.725,437.407 c 0,0 -30.22,-9.156 -72.538,-2.631 -38.105,5.905 -138.336,104.091 -138.336,104.091 l -3.073,174.807 c 0,0 120.574,-96.977 158.698,-109.735 38.123,-12.759 68.708,0.679 68.708,0.679 z"
       stroke-miterlimit="10"
       id="path32"
       inkscape:connector-curvature="0"
       style="fill:#ffffff;stroke:#ff6b00;stroke-width:1.22337997;stroke-miterlimit:10" />
    <path
       d="m 252.257,447.722 0.569,78.191 -76.172,61.383 0.437,-81.482 55.62,-45.551 z"
       id="path34"
       inkscape:connector-curvature="0"
       style="fill:#262626" />
    <path
       d="m 339.867,782.581 85.52,-23.705 15.019,54.187 -85.52,23.705 z"
       stroke-miterlimit="10"
       id="path36"
       inkscape:connector-curvature="0"
       style="fill:#ffffff;stroke:#ff6b00;stroke-width:1.22337997;stroke-miterlimit:10" />
    <path
       d="m 418.5,790.671 -0.377,-1.357 -12.466,-2.536 0.602,2.171 9.499,1.715 -0.106,-0.117 0.094,0.339 0.03,-0.155 -7.26,6.361 0.601,2.171 z m -24.656,-6.172 11.362,19.246 1.832,-0.508 -11.362,-19.246 z m -8.342,21.894 0.949,-1.651 -6.868,-3.887 13.927,-3.86 -0.517,-1.866 -13.927,3.86 3.891,-6.851 -1.668,-0.944 -5.493,9.706 z m -24.973,0.346 12.467,2.536 -0.602,-2.171 -9.499,-1.715 0.105,0.117 -0.094,-0.339 -0.03,0.154 7.261,-6.36 -0.602,-2.171 -9.382,8.592 z"
       id="path38"
       inkscape:connector-curvature="0"
       style="fill:#000000" />
    <path
       d="m 232.595,443.036 0.314,78.261 -76.172,61.384 0.461,-75.463 z"
       stroke-miterlimit="10"
       id="path40"
       inkscape:connector-curvature="0"
       style="fill:#ffffff;stroke:#262626;stroke-width:1.22337997;stroke-miterlimit:10" />
    <path
       d="m 341.95,378.756 -6.92,-73.417 76.243,-61.129 6.074,70.364 z"
       stroke-miterlimit="10"
       id="path42"
       inkscape:connector-curvature="0"
       style="fill:#ffffff;stroke:#262626;stroke-width:1.22337997;stroke-miterlimit:10" />
    <path
       d="m 376.2,324.335 c -4.779,1.325 -9.727,-1.474 -11.051,-6.251 -1.324,-4.777 1.477,-9.723 6.256,-11.048 4.78,-1.325 9.727,1.474 11.052,6.251 1.324,4.777 -1.477,9.724 -6.257,11.048 z"
       stroke-miterlimit="10"
       id="path44"
       inkscape:connector-curvature="0"
       style="fill:#ffffff;stroke:#262626;stroke-width:1.22337997;stroke-miterlimit:10" />
    <path
       d="m 196.552,535.484 -0.004,27.67 -26.877,21.695 0.287,-26.652 z"
       stroke-miterlimit="10"
       id="path46"
       inkscape:connector-curvature="0"
       style="fill:#ffffff;stroke:#262626;stroke-width:1.22337997;stroke-miterlimit:10" />
    <path
       d="m 294.03,576.677 0.225,44.317 -41.682,26.62 0.199,-42.79 z"
       stroke-miterlimit="10"
       id="path48"
       inkscape:connector-curvature="0"
       style="fill:#ffffff;stroke:#262626;stroke-width:1.22337997;stroke-miterlimit:10" />
    <path
       d="m 433.972,606.922 c -18.414,5.104 -37.478,-5.679 -42.58,-24.084 -5.102,-18.406 5.691,-37.464 24.105,-42.569 18.415,-5.104 37.479,5.679 42.58,24.085 5.102,18.405 -5.69,37.464 -24.105,42.568 z"
       id="path50"
       inkscape:connector-curvature="0"
       style="fill:#262626" />
    <path
       d="m 425.204,592.094 c -18.415,5.104 -37.479,-5.679 -42.58,-24.084 -5.102,-18.406 5.69,-37.465 24.105,-42.569 18.414,-5.104 37.478,5.679 42.58,24.085 5.102,18.405 -5.691,37.464 -24.105,42.568 z"
       stroke-miterlimit="10"
       id="path52"
       inkscape:connector-curvature="0"
       style="fill:#ffffff;stroke:#262626;stroke-width:1.22337997;stroke-miterlimit:10" />
    <path
       d="M 415.965,558.768 548.819,324.155"
       stroke-miterlimit="10"
       id="path54"
       inkscape:connector-curvature="0"
       style="stroke:#ff6b00;stroke-width:1.22337997;stroke-miterlimit:10" />
    <path
       d="m 562.716,346.601 c -18.414,5.104 -37.478,-5.679 -42.58,-24.084 -5.101,-18.406 5.691,-37.464 24.105,-42.569 18.415,-5.104 37.479,5.679 42.58,24.085 5.102,18.405 -5.69,37.464 -24.105,42.568 z"
       stroke-miterlimit="10"
       id="path56"
       inkscape:connector-curvature="0"
       style="fill:#ffffff;stroke:#ff6b00;stroke-width:1.22337997;stroke-miterlimit:10" />
    <path
       d="m 540.747,281.191 5.622,-13.338 32.432,40.869 -24.574,46.807 -6.032,-7.916"
       stroke-miterlimit="10"
       id="path58"
       inkscape:connector-curvature="0"
       style="stroke:#ff6b00;stroke-width:1.22337997;stroke-miterlimit:10" />
    <path
       d="m 711.635,428.809 -0.481,-1.735 -15.937,-3.241 0.769,2.775 12.144,2.192 -0.135,-0.149 0.12,0.433 0.039,-0.197 -9.282,8.13 0.769,2.776 z m -28.719,16.367 0.661,2.386 13.879,-3.847 -0.661,-2.386 z m -13.806,3.827 0.662,2.385 13.878,-3.847 -0.661,-2.385 z m -13.805,3.827 0.661,2.385 13.879,-3.847 -0.661,-2.385 z m -16.606,-20.43 14.525,24.602 2.343,-0.649 -14.526,-24.603 z m -8.083,27.273 0.661,2.385 13.879,-3.847 -0.661,-2.385 z m -19.179,-3.091 15.937,3.242 -0.769,-2.775 -12.143,-2.192 0.134,0.149 -0.12,-0.433 -0.038,0.197 9.282,-8.13 -0.77,-2.776 -11.994,10.984 z"
       id="path60"
       inkscape:connector-curvature="0"
       style="fill:#000000" />
    <path
       d="m 861.8,360.677 c -5.763,1.598 -11.73,-1.777 -13.327,-7.538 -1.596,-5.76 1.781,-11.725 7.545,-13.323 5.763,-1.597 11.73,1.778 13.326,7.538 1.597,5.761 -1.781,11.726 -7.544,13.323 z"
       stroke-miterlimit="10"
       id="path62"
       inkscape:connector-curvature="0"
       style="fill:#ffffff;stroke:#f55800;stroke-width:1.22337997;stroke-miterlimit:10" />
    <path
       d="m 978.856,155.098 c -22.913,6.351 -46.633,-7.066 -52.981,-29.968 -6.348,-22.902 7.08,-46.6155 29.993,-52.9666 22.913,-6.351 46.632,7.0659 52.982,29.9676 6.35,22.902 -7.08,46.616 -29.994,52.967 z"
       stroke-miterlimit="10"
       id="path64"
       inkscape:connector-curvature="0"
       style="fill:#ffffff;stroke:#f55800;stroke-width:1.22337997;stroke-miterlimit:10" />
    <path
       d="m 418.393,563.574 c -3.373,0.935 -6.866,-1.041 -7.801,-4.413 -0.934,-3.372 1.043,-6.863 4.417,-7.798 3.373,-0.936 6.866,1.04 7.801,4.412 0.934,3.372 -1.043,6.864 -4.417,7.799 z"
       stroke-miterlimit="10"
       id="path66"
       inkscape:connector-curvature="0"
       style="fill:#ffffff;stroke:#ff6b00;stroke-width:1.22337997;stroke-miterlimit:10" />
    <path
       d="m 931.894,89.4929 c 0,0 5.665,26.3721 30.368,40.3441 24.703,13.973 42.178,5.841 42.178,5.841"
       id="path68"
       inkscape:connector-curvature="0"
       style="fill:#ffffff" />
    <path
       d="m 931.894,89.4929 c 0,0 5.665,26.3721 30.368,40.3441 24.703,13.973 42.178,5.841 42.178,5.841"
       stroke-miterlimit="10"
       id="path70"
       inkscape:connector-curvature="0"
       style="stroke:#f55800;stroke-width:1.22337997;stroke-miterlimit:10" />
    <path
       d="m 661.841,209.821 34.024,-12.718 -4.089,-37.493 35.085,-13.834 4.23,38.002 36.498,-13.678 4.328,39.344 -36.71,12.915 -35.692,12.633 3.975,38.072 -34.376,11.446 3.65,37.889 -33.315,10.33 -3.439,-37.126 -3.622,-36.8 32.962,-11.602 z"
       id="path72"
       inkscape:connector-curvature="0"
       style="fill:#666666" />
    <path
       d="m 658.219,173.021 -3.877,-36.73 33.671,-13.99 3.763,37.309 z"
       id="path74"
       inkscape:connector-curvature="0"
       style="fill:#262626" />
    <path
       d="m 628.836,222.257 -3.482,-36.291 32.865,-12.945 3.622,36.801 z"
       id="path76"
       inkscape:connector-curvature="0"
       style="fill:#262626" />
    <path
       d="m 593.947,198.233 -3.27,-35.528 31.196,-13.03 3.482,36.291 z"
       id="path78"
       inkscape:connector-curvature="0"
       style="fill:#262626" />
    <path
       d="m 597.288,234.016 31.548,-11.759 3.553,36.546 -31.945,11.32 -30.672,10.967 -3.27,-35.528 -3.199,-35.274 30.644,-12.055 z"
       id="path80"
       inkscape:connector-curvature="0"
       style="fill:#ff6b00" />
    <path
       d="m 763.403,131.265 -36.542,14.512 -3.975,-38.073 -34.873,14.598 -3.693,-37.055 34.732,-15.1061 35.934,-15.7132 4.046,38.3267 37.602,-15.6277 39.059,-16.3054 4.794,40.0367 -39.271,15.542 4.399,39.599 -38.026,14.101 z"
       id="path82"
       inkscape:connector-curvature="0"
       style="fill:#f55800" />
    <path
       d="m 845.351,141.149 4.68,40.617 -39.694,14.016 -4.723,-39.783 z"
       id="path84"
       inkscape:connector-curvature="0"
       style="fill:#262626" />
    <path
       d="M 787.752,-0.403564 792.123,38.107 754.986,54.4273 750.757,16.4256 Z"
       id="path86"
       inkscape:connector-curvature="0"
       style="fill:#262626" />
    <path
       d="m 654.342,136.291 -32.468,13.383 -3.341,-35.782 -3.27,-35.5286 31.862,-14.5844 33.318,-15.2622 3.877,36.7298 -33.53,14.4989 z"
       id="path88"
       inkscape:connector-curvature="0"
       style="fill:#262626" />
    <path
       d="m 557.186,140.758 30.292,-13.327 3.199,35.274 -30.433,12.818 z"
       id="path90"
       inkscape:connector-curvature="0"
       style="fill:#262626" />
    <path
       d="m 533.93,221.991 -2.987,-34.511 29.301,-11.957 3.058,34.765 z"
       id="path92"
       inkscape:connector-curvature="0"
       style="fill:#262626" />
    <path
       d="m 810.338,195.782 4.539,40.107 -38.632,12.9 -4.328,-39.344 z"
       id="path94"
       inkscape:connector-curvature="0"
       style="fill:#262626" />
    <path
       d="M 373.801,315.686 936.759,481.803"
       stroke-miterlimit="10"
       id="path96"
       inkscape:connector-curvature="0"
       style="stroke:#ff6b00;stroke-width:1.22337997;stroke-miterlimit:10" />
  </g>
  <defs
     id="defs103">
    <clipPath
       id="clip0_34_1280">
      <rect
         width="1003.13"
         height="769.271"
         transform="matrix(-0.963665,0.267112,0.267112,0.963665,966.682,-50)"
         id="rect100"
         x="0"
         y="0"
         style="fill:#ffffff" />
    </clipPath>
  </defs>
</svg>
